<svg width="18" height="20" viewBox="0 0 18 20" fill="none" xmlns="http://www.w3.org/2000/svg">
<path d="M17.7927 14.3127C17.2724 13.4165 16.4989 10.8805 16.4989 7.56836C16.4989 5.57924 15.7087 3.67158 14.3022 2.26506C12.8957 0.858536 10.988 0.0683594 8.99891 0.0683594C7.00979 0.0683594 5.10214 0.858536 3.69561 2.26506C2.28909 3.67158 1.49891 5.57924 1.49891 7.56836C1.49891 10.8815 0.724538 13.4165 0.204226 14.3127C0.0713545 14.5406 0.000914339 14.7994 8.84153e-06 15.0632C-0.000896656 15.327 0.0677647 15.5863 0.199068 15.8151C0.330372 16.0438 0.519675 16.2339 0.747887 16.3662C0.976099 16.4984 1.23515 16.5682 1.49891 16.5684H5.32485C5.49789 17.4151 5.95806 18.176 6.62754 18.7225C7.29702 19.269 8.1347 19.5675 8.99891 19.5675C9.86312 19.5675 10.7008 19.269 11.3703 18.7225C12.0398 18.176 12.4999 17.4151 12.673 16.5684H16.4989C16.7626 16.568 17.0215 16.4981 17.2496 16.3658C17.4777 16.2335 17.6669 16.0434 17.7981 15.8147C17.9292 15.5859 17.9978 15.3267 17.9969 15.063C17.9959 14.7993 17.9255 14.5405 17.7927 14.3127ZM8.99891 18.0684C8.53375 18.0682 8.08005 17.9239 7.70029 17.6553C7.32052 17.3867 7.03335 17.0069 6.87829 16.5684H11.1195C10.9645 17.0069 10.6773 17.3867 10.2975 17.6553C9.91777 17.9239 9.46408 18.0682 8.99891 18.0684Z" fill="#7F7F7F"/>
</svg>
